<?xml version="1.0" encoding="utf-8"?>
<!-- Generator: Adobe Illustrator 18.1.1, SVG Export Plug-In . SVG Version: 6.00 Build 0)  -->
<svg version="1.1" id="Layer_1" xmlns="http://www.w3.org/2000/svg" xmlns:xlink="http://www.w3.org/1999/xlink" x="0px" y="0px"
	 viewBox="0 0 31 31" enable-background="new 0 0 31 31" xml:space="preserve">
<g>
	<path fill="#FFFFFF" d="M28.3,3h-4.2V1c0-0.5-0.4-1-1-1c-0.5,0-1,0.4-1,1V3h-5.8V1c0-0.5-0.4-1-1-1c-0.5,0-1,0.4-1,1V3H8.7V1
		c0-0.5-0.4-1-1-1c-0.5,0-1,0.4-1,1V3H2.6C1.2,3,0,4.1,0,5.5v22.8C0,29.8,1.2,31,2.6,31h25.7c1.4,0,2.6-1.2,2.6-2.6V5.5
		C30.9,4.1,29.7,3,28.3,3L28.3,3z M29,28.4c0,0.4-0.3,0.6-0.6,0.6H2.6c-0.4,0-0.6-0.3-0.6-0.6V5.5c0-0.4,0.3-0.6,0.6-0.6h4.2v1.9
		c0,0.5,0.4,1,1,1c0.5,0,1-0.4,1-1V4.9h5.8v1.9c0,0.5,0.4,1,1,1c0.5,0,1-0.4,1-1V4.9h5.8v1.9c0,0.5,0.4,1,1,1c0.5,0,1-0.4,1-1V4.9
		h4.2c0.4,0,0.6,0.3,0.6,0.6V28.4z M29,28.4"/>
	<rect x="6.8" y="11.7" fill="#FFFFFF" width="3.9" height="2.9"/>
	<rect x="6.8" y="16.5" fill="#FFFFFF" width="3.9" height="2.9"/>
	<rect x="6.8" y="21.3" fill="#FFFFFF" width="3.9" height="2.9"/>
	<rect x="13.5" y="21.3" fill="#FFFFFF" width="3.9" height="2.9"/>
	<rect x="13.5" y="16.5" fill="#FFFFFF" width="3.9" height="2.9"/>
	<rect x="13.5" y="11.7" fill="#FFFFFF" width="3.9" height="2.9"/>
	<rect x="20.3" y="21.3" fill="#FFFFFF" width="3.9" height="2.9"/>
	<rect x="20.3" y="16.5" fill="#FFFFFF" width="3.9" height="2.9"/>
	<rect x="20.3" y="11.7" fill="#FFFFFF" width="3.9" height="2.9"/>
</g>
</svg>
