<?xml version="1.0" encoding="utf-8"?>
<!-- Generator: Adobe Illustrator 18.1.1, SVG Export Plug-In . SVG Version: 6.00 Build 0)  -->
<svg version="1.1" id="Layer_1" xmlns="http://www.w3.org/2000/svg" xmlns:xlink="http://www.w3.org/1999/xlink" x="0px" y="0px"
	 viewBox="0 0 45 34" enable-background="new 0 0 45 34" xml:space="preserve">
<path fill="#72CE74" d="M11,5H3.8C1.8,5,0,6.9,0,8.9v21.4c0,2,1.8,3.7,3.8,3.7h37.4c2,0,3.8-1.8,3.8-3.7V8.9c0-2-1.8-3.9-3.8-3.9
	h-7.4l-4.3-4c0,0-0.7-0.5-0.7-0.5L29.5,1C28.9,0.3,28,0,27,0h-8.9c-1,0-2.1,0.4-2.8,1.1 M43,30.3c0,1-0.8,1.7-1.8,1.7H3.8
	c-1,0-1.8-0.8-1.8-1.7V8.9C2,7.9,2.8,7,3.8,7h7.5h0.7l0.5-0.5l2.2-2.1l2.1-1.9C17.2,2.1,17.6,2,18.1,2H27c0.5,0,0.9,0.1,1.3,0.4
	l4.3,4.2L33.1,7h0.7h7.4c1,0,1.8,0.9,1.8,1.9V30.3z"/>
<path fill="#72CE74" d="M22.5,8c-5.7,0-10.3,4.6-10.3,10.3c0,5.7,4.6,10.3,10.3,10.3c5.7,0,10.3-4.6,10.3-10.3
	C32.8,12.6,28.2,8,22.5,8z M22.5,27.1c-4.8,0-8.7-3.9-8.7-8.7c0-4.8,3.9-8.7,8.7-8.7s8.7,3.9,8.7,8.7C31.2,23.1,27.3,27.1,22.5,27.1
	z"/>
</svg>
