<?xml version="1.0" encoding="utf-8"?>
<!-- Generator: Adobe Illustrator 18.1.1, SVG Export Plug-In . SVG Version: 6.00 Build 0)  -->
<svg version="1.1" id="Layer_1" xmlns="http://www.w3.org/2000/svg" xmlns:xlink="http://www.w3.org/1999/xlink" x="0px" y="0px"
	 viewBox="0 0 39 24" enable-background="new 0 0 39 24" xml:space="preserve">
<g>
	<path fill="#72CE74" d="M34.6,4.4h-30c-1,0-1.9-0.9-1.9-1.9v0c0-1,0.9-1.9,1.9-1.9h30c1,0,1.9,0.9,1.9,1.9v0
		C36.5,3.6,35.7,4.4,34.6,4.4z"/>
	<path fill="#72CE74" d="M34.6,13.8h-30c-1,0-1.9-0.9-1.9-1.9v0c0-1,0.9-1.9,1.9-1.9h30c1,0,1.9,0.9,1.9,1.9v0
		C36.5,12.9,35.7,13.8,34.6,13.8z"/>
	<path fill="#72CE74" d="M34.6,23.1h-30c-1,0-1.9-0.9-1.9-1.9v0c0-1,0.9-1.9,1.9-1.9h30c1,0,1.9,0.9,1.9,1.9v0
		C36.5,22.3,35.7,23.1,34.6,23.1z"/>
</g>
</svg>
