<?xml version="1.0" encoding="utf-8"?>
<!-- Generator: Adobe Illustrator 18.1.1, SVG Export Plug-In . SVG Version: 6.00 Build 0)  -->
<svg version="1.1" id="Layer_1" xmlns="http://www.w3.org/2000/svg" xmlns:xlink="http://www.w3.org/1999/xlink" x="0px" y="0px"
	 viewBox="0 0 103 29" enable-background="new 0 0 103 29" xml:space="preserve">
<g>
	<path fill="#72CE74" d="M8.5,28.4c-2.3,0-4.2-0.8-5.8-2.3c-1.5-1.5-2.3-3.4-2.3-5.8s0.8-4.2,2.3-5.8c1.5-1.5,3.4-2.3,5.8-2.3
		c2,0,3.6,0.5,4.7,1.4v1.8l-1-0.6l-1.1-0.6c-1-0.3-1.9-0.5-2.7-0.5c-1.9,0-3.5,0.6-4.7,1.8C2.6,16.9,2,18.5,2,20.4
		c0,1.9,0.6,3.5,1.8,4.7c1.2,1.2,2.8,1.8,4.7,1.8c1.8,0,3.4-0.6,4.7-1.8v1.9C11.9,28,10.3,28.4,8.5,28.4z"/>
	<path fill="#72CE74" d="M27.8,28.2v-9.4c0-3.3-1.5-4.9-4.6-4.9c-1.3,0-2.3,0.4-3.2,1.1c-0.9,0.8-1.4,1.8-1.4,3v10.1H17V0.3h1.5
		v14.4c0.9-1.5,2.5-2.3,4.6-2.3c4.1,0,6.1,2.1,6.1,6.3v9.5H27.8z"/>
	<path fill="#72CE74" d="M34.2,20.1c0,2.1,0.6,3.8,1.7,5c1.2,1.3,2.8,1.9,4.9,1.9c1.1,0,2-0.2,2.9-0.5c1.1-0.5,2-1.4,2.9-2.7
		l1.4,0.6c-1,1.9-2.5,3.1-4.5,3.8c-0.8,0.3-1.7,0.4-2.6,0.4c-2.3,0-4.3-0.8-5.8-2.3c-1.5-1.5-2.3-3.4-2.3-5.8c0-2.3,0.8-4.3,2.3-5.8
		c1.5-1.5,3.5-2.3,5.8-2.3c2.3,0,4.2,0.7,5.7,2.1c1.5,1.4,2.3,3.3,2.3,5.6H34.2z M44.8,15.1c-1.2-0.9-2.5-1.3-4.1-1.3
		c-3.2,0-5.3,1.6-6.3,4.7H47C46.7,17.2,46,16,44.8,15.1z"/>
	<path fill="#72CE74" d="M59.6,28.4c-2.3,0-4.2-0.8-5.8-2.3c-1.5-1.5-2.3-3.4-2.3-5.8s0.8-4.2,2.3-5.8c1.5-1.5,3.4-2.3,5.8-2.3
		c2,0,3.6,0.5,4.7,1.4v1.8l-1-0.6l-1.1-0.6c-1-0.3-1.9-0.5-2.7-0.5c-1.9,0-3.5,0.6-4.7,1.8c-1.2,1.2-1.8,2.8-1.8,4.7
		c0,1.9,0.6,3.5,1.8,4.7c1.2,1.2,2.8,1.8,4.7,1.8c1.8,0,3.4-0.6,4.7-1.8v1.9C63,28,61.4,28.4,59.6,28.4z"/>
	<path fill="#72CE74" d="M77,28.1l-8.1-8.1L68,20.9v7.2h-1.5V0.3H68v18.4l6.7-6.7h2.2l-7,7l9.1,9.1H77z"/>
	<path fill="#72CE74" d="M82.1,4.2c0-0.6,0.2-1.1,0.6-1.6C83,2.2,83.5,2,84.1,2c0.6,0,1,0.2,1.4,0.6c0.4,0.4,0.6,0.9,0.6,1.6
		c0,0.6-0.2,1.1-0.6,1.5c-0.4,0.4-0.9,0.6-1.4,0.6c-0.6,0-1-0.2-1.4-0.6C82.3,5.3,82.1,4.8,82.1,4.2z M85.9,26.8
		c0,0.6-0.2,1.1-0.6,1.4c-0.3,0.3-0.7,0.5-1.1,0.5c-0.4,0-0.7-0.1-1.1-0.4c-0.3-0.3-0.5-0.7-0.6-1.4c0-2.6,0-5.3-0.1-8
		c0-2.7,0-5.4-0.1-8c0.1-0.6,0.4-1,0.7-1.2c0.3-0.3,0.7-0.4,1-0.4c0.4,0,0.7,0.1,1,0.4c0.3,0.2,0.5,0.6,0.7,1.2c0,2.6,0,5.3,0.1,8
		C85.8,21.5,85.9,24.2,85.9,26.8z"/>
	<path fill="#72CE74" d="M89.8,12.9c-0.3-0.3-0.4-0.7-0.4-1.1c0-0.4,0.2-0.8,0.5-1.1c0.3-0.4,0.8-0.6,1.4-0.6h2.3V3.5
		c0.1-0.6,0.4-1,0.7-1.2c0.3-0.3,0.7-0.4,1-0.4c0.4,0,0.7,0.1,1,0.4c0.3,0.2,0.5,0.6,0.7,1.2v6.7h4c0.5,0.1,0.9,0.4,1.2,0.7
		c0.2,0.3,0.4,0.7,0.4,1c0,0.4-0.1,0.7-0.4,1c-0.3,0.3-0.7,0.5-1.2,0.7H97c0,2.1,0,4.3,0,6.6c0,2.3,0,4.5,0,6.6
		c0,0.6-0.2,1.1-0.6,1.4c-0.4,0.3-0.8,0.5-1.1,0.5c-0.4,0-0.7-0.1-1.1-0.4c-0.3-0.3-0.5-0.7-0.6-1.4c0-2.2,0-4.4,0-6.7
		c0-2.3,0-4.5,0-6.7h-2.5C90.5,13.4,90.1,13.2,89.8,12.9z"/>
</g>
</svg>
