<svg fill="#72ce74" height="30" viewBox="0 0 30 30" width="30" xmlns="http://www.w3.org/2000/svg">
<path d="M 8,0 C 3.5876443,0 0,3.5876443 0,8 c 0,4.412356 3.5876443,8 8,8 1.1712524,0 2.00493,-0.24851 2.778566,-0.530973 L 24.146481,28.853516 C 24.730107,29.437866 25.543133,30 26.5,30 l 2,0 c 0.422589,0 0.767487,-0.204987 1.03125,-0.46875 C 29.795013,29.267487 30,28.922589 30,28.5 l 0,-2 c 0,-0.956867 -0.56271,-1.769318 -1.146484,-2.353516 l -0.999637,-1.000363 c -0.09376,-0.09377 -0.220916,-0.146459 -0.353516,-0.146484 l -1.5,0 0,-1.5 c -2.5e-5,-0.1326 -0.05272,-0.25976 -0.146484,-0.353516 l -2.000242,-1.999758 c -0.09376,-0.09377 -0.220916,-0.146459 -0.353516,-0.146484 l -1.5,0 0,-1.5 c -2.5e-5,-0.1326 -0.05272,-0.25976 -0.146484,-0.353516 l -2,-2 c -0.09376,-0.09377 -0.220916,-0.146459 -0.353516,-0.146484 l -1.5,0 0,-1.5 c -2.5e-5,-0.1326 -0.05272,-0.25976 -0.146484,-0.353516 L 15.447266,10.740234 C 15.770764,9.8582879 16.000164,8.9413592 16,8 16,3.5876443 12.412356,0 8,0 Z m 0,1 c 3.871916,0 7,3.1280844 7,7 1.63e-4,0.9335196 -0.186523,1.8584048 -0.548828,2.71875 -0.07851,0.187198 -0.03607,0.403286 0.107422,0.546875 l 2.441527,2.441285 0,1.792969 c 2.8e-5,0.276131 0.223869,0.499972 0.5,0.5 l 1.792969,0 1.707031,1.707031 0,1.792969 c 2.8e-5,0.276131 0.223869,0.499972 0.5,0.5 l 1.792969,0 1.707273,1.706789 0,1.792969 c 2.8e-5,0.276131 0.223869,0.499972 0.5,0.5 l 1.792969,0 0.853152,0.853879 C 28.616389,25.323822 29,25.966155 29,26.5 l 0,2 c 0,0.04882 -0.05935,0.20388 -0.177734,0.322266 C 28.70388,28.940652 28.548816,29 28.5,29 l -2,0 c -0.533845,0 -1.176379,-0.38341 -1.646484,-0.853516 L 11.259766,14.552734 C 11.115817,14.408413 10.898676,14.365912 10.710938,14.445312 9.8532682,14.808528 8.9313922,14.997448 8,15 4.1280844,15 1,11.871916 1,8 1,4.1280844 4.1280844,1 8,1 Z M 6,4 C 4.9013528,4 4,4.9013528 4,6 4,7.0986472 4.9013528,8 6,8 7.0986472,8 8,7.0986472 8,6 8,4.9013528 7.0986472,4 6,4 Z M 6,5 C 6.5582071,5 7,5.4417929 7,6 7,6.5582071 6.5582071,7 6,7 5.4417929,7 5,6.5582071 5,6 5,5.4417929 5.4417929,5 6,5 Z"/>
</svg>