<?xml version="1.0" encoding="utf-8"?>
<!-- Generator: Adobe Illustrator 18.1.1, SVG Export Plug-In . SVG Version: 6.00 Build 0)  -->
<svg version="1.1" id="Layer_1" xmlns="http://www.w3.org/2000/svg" xmlns:xlink="http://www.w3.org/1999/xlink" x="0px" y="0px"
	 viewBox="0 0 25 42" enable-background="new 0 0 25 42" xml:space="preserve">
<g>
	<path fill="#72CE74" d="M21.7,0.4H3.3c-1.5,0-2.8,1.3-2.8,2.8v35.9c0,1.5,1.3,2.8,2.8,2.8h18.5c1.5,0,2.8-1.3,2.8-2.8V3.2
		C24.5,1.7,23.3,0.4,21.7,0.4L21.7,0.4z M9.5,2.4h5.9c0.2,0,0.3,0.2,0.3,0.3c0,0.2-0.1,0.3-0.3,0.3H9.5C9.4,3.1,9.2,3,9.2,2.8
		C9.2,2.6,9.4,2.4,9.5,2.4L9.5,2.4z M12.5,40.5c-0.8,0-1.4-0.6-1.4-1.4c0-0.8,0.6-1.4,1.4-1.4c0.8,0,1.4,0.6,1.4,1.4
		C13.9,39.9,13.3,40.5,12.5,40.5L12.5,40.5z M22.6,36.7H2.4V4.9h20.2V36.7z M22.6,36.7"/>
</g>
</svg>
