<svg xmlns:dc="http://purl.org/dc/elements/1.1/" xmlns:cc="http://creativecommons.org/ns#" xmlns:rdf="http://www.w3.org/1999/02/22-rdf-syntax-ns#" xmlns:svg="http://www.w3.org/2000/svg" xmlns="http://www.w3.org/2000/svg" xmlns:sodipodi="http://sodipodi.sourceforge.net/DTD/sodipodi-0.dtd" xmlns:inkscape="http://www.inkscape.org/namespaces/inkscape" viewBox="0 0 32 40.00000125" version="1.1" x="0px" y="0px"><g transform="translate(0,-1020.3622)"><path style="color:#72ce74;font-style:normal;font-variant:normal;font-weight:normal;font-stretch:normal;font-size:medium;line-height:normal;font-family:sans-serif;text-indent:0;text-align:start;text-decoration:none;text-decoration-line:none;text-decoration-style:solid;text-decoration-color:#72ce74;letter-spacing:normal;word-spacing:normal;text-transform:none;direction:ltr;block-progression:tb;writing-mode:lr-tb;baseline-shift:baseline;text-anchor:start;white-space:normal;clip-rule:nonzero;display:inline;overflow:visible;visibility:visible;opacity:1;isolation:auto;mix-blend-mode:normal;color-interpolation:sRGB;color-interpolation-filters:linearRGB;solid-color:#72ce74;solid-opacity:1;fill:#72ce74;fill-opacity:1;fill-rule:nonzero;stroke:none;stroke-width:1;stroke-linecap:round;stroke-linejoin:round;stroke-miterlimit:4;stroke-dasharray:none;stroke-dashoffset:0;stroke-opacity:1;color-rendering:auto;image-rendering:auto;shape-rendering:auto;text-rendering:auto;enable-background:accumulate" d="m 11.5,1033.8613 c -0.822356,0 -1.5,0.6777 -1.5,1.5 l 0,6.6895 c 0,0.5082 0.06697,1.1106 0.269531,1.7031 0.154833,0.453 0.230475,0.9339 0.230469,1.4199 l 0,5.1875 c 0,0.8224 0.677644,1.5 1.5,1.5 l 8,0 c 0.822356,0 1.5,-0.6776 1.5,-1.5 l 0,-5.1758 c 0.0096,-0.4295 0.06248,-0.9411 0.216797,-1.3925 0.192815,-0.5642 0.283199,-1.1535 0.283203,-1.7422 l 0,-6.6895 c 0,-0.8223 -0.677644,-1.5 -1.5,-1.5 l -9,0 z m 0,1 9,0 c 0.285662,0 0.5,0.2144 0.5,0.5 l 0,6.6895 c -4e-6,0.486 -0.07568,0.967 -0.230469,1.4199 -0.204598,0.5986 -0.258649,1.2019 -0.269531,1.6914 a 0.50005,0.50005 0 0 0 0,0.012 l 0,5.1875 c 0,0.2857 -0.214338,0.5 -0.5,0.5 l -8,0 c -0.285662,0 -0.5,-0.2143 -0.5,-0.5 l 0,-5.1875 c 8e-6,-0.5887 -0.09033,-1.1779 -0.283203,-1.7422 C 11.060456,1042.9743 11,1042.4667 11,1042.0508 l 0,-6.6895 c 0,-0.2856 0.214338,-0.5 0.5,-0.5 z"/><path style="color:#72ce74;font-style:normal;font-variant:normal;font-weight:normal;font-stretch:normal;font-size:medium;line-height:normal;font-family:sans-serif;text-indent:0;text-align:start;text-decoration:none;text-decoration-line:none;text-decoration-style:solid;text-decoration-color:#72ce74;letter-spacing:normal;word-spacing:normal;text-transform:none;direction:ltr;block-progression:tb;writing-mode:lr-tb;baseline-shift:baseline;text-anchor:start;white-space:normal;clip-rule:nonzero;display:inline;overflow:visible;visibility:visible;opacity:1;isolation:auto;mix-blend-mode:normal;color-interpolation:sRGB;color-interpolation-filters:linearRGB;solid-color:#72ce74;solid-opacity:1;fill:#72ce74;fill-opacity:1;fill-rule:evenodd;stroke:none;stroke-width:1px;stroke-linecap:round;stroke-linejoin:round;stroke-miterlimit:4;stroke-dasharray:none;stroke-dashoffset:0;stroke-opacity:1;color-rendering:auto;image-rendering:auto;shape-rendering:auto;text-rendering:auto;enable-background:accumulate" d="M 12.992188,1020.8613 A 0.50005,0.50005 0 0 0 12.5,1021.3691 l 0,10.9864 a 0.50005,0.50005 0 1 0 1,0 l 0,-10.9864 a 0.50005,0.50005 0 0 0 -0.507812,-0.5078 z"/><path style="color:#72ce74;font-style:normal;font-variant:normal;font-weight:normal;font-stretch:normal;font-size:medium;line-height:normal;font-family:sans-serif;text-indent:0;text-align:start;text-decoration:none;text-decoration-line:none;text-decoration-style:solid;text-decoration-color:#72ce74;letter-spacing:normal;word-spacing:normal;text-transform:none;direction:ltr;block-progression:tb;writing-mode:lr-tb;baseline-shift:baseline;text-anchor:start;white-space:normal;clip-rule:nonzero;display:inline;overflow:visible;visibility:visible;opacity:1;isolation:auto;mix-blend-mode:normal;color-interpolation:sRGB;color-interpolation-filters:linearRGB;solid-color:#72ce74;solid-opacity:1;fill:#72ce74;fill-opacity:1;fill-rule:evenodd;stroke:none;stroke-width:1px;stroke-linecap:butt;stroke-linejoin:round;stroke-miterlimit:4;stroke-dasharray:none;stroke-dashoffset:0;stroke-opacity:1;color-rendering:auto;image-rendering:auto;shape-rendering:auto;text-rendering:auto;enable-background:accumulate" d="m 12,1031.8613 a 0.50005,0.50005 0 0 0 -0.5,0.5 l 0,2 1,0 0,-1.5 1,0 0,1.5 1,0 0,-2 a 0.50005,0.50005 0 0 0 -0.5,-0.5 l -2,0 z"/><path style="color:#72ce74;font-style:normal;font-variant:normal;font-weight:normal;font-stretch:normal;font-size:medium;line-height:normal;font-family:sans-serif;text-indent:0;text-align:start;text-decoration:none;text-decoration-line:none;text-decoration-style:solid;text-decoration-color:#72ce74;letter-spacing:normal;word-spacing:normal;text-transform:none;direction:ltr;block-progression:tb;writing-mode:lr-tb;baseline-shift:baseline;text-anchor:start;white-space:normal;clip-rule:nonzero;display:inline;overflow:visible;visibility:visible;opacity:1;isolation:auto;mix-blend-mode:normal;color-interpolation:sRGB;color-interpolation-filters:linearRGB;solid-color:#72ce74;solid-opacity:1;fill:#72ce74;fill-opacity:1;fill-rule:evenodd;stroke:none;stroke-width:1px;stroke-linecap:butt;stroke-linejoin:round;stroke-miterlimit:4;stroke-dasharray:none;stroke-dashoffset:0;stroke-opacity:1;color-rendering:auto;image-rendering:auto;shape-rendering:auto;text-rendering:auto;enable-background:accumulate" d="m 18,1031.8613 a 0.50005,0.50005 0 0 0 -0.484375,0.3789 l -0.5,2 0.96875,0.2442 0.40625,-1.6231 0.71875,0 0.40625,1.6231 0.96875,-0.2442 -0.5,-2 A 0.50005,0.50005 0 0 0 19.5,1031.8613 l -1.5,0 z"/><path style="color:#72ce74;font-style:normal;font-variant:normal;font-weight:normal;font-stretch:normal;font-size:medium;line-height:normal;font-family:sans-serif;text-indent:0;text-align:start;text-decoration:none;text-decoration-line:none;text-decoration-style:solid;text-decoration-color:#72ce74;letter-spacing:normal;word-spacing:normal;text-transform:none;direction:ltr;block-progression:tb;writing-mode:lr-tb;baseline-shift:baseline;text-anchor:start;white-space:normal;clip-rule:nonzero;display:inline;overflow:visible;visibility:visible;opacity:1;isolation:auto;mix-blend-mode:normal;color-interpolation:sRGB;color-interpolation-filters:linearRGB;solid-color:#72ce74;solid-opacity:1;fill:#72ce74;fill-opacity:1;fill-rule:nonzero;stroke:none;stroke-width:1;stroke-linecap:round;stroke-linejoin:round;stroke-miterlimit:4;stroke-dasharray:none;stroke-dashoffset:0;stroke-opacity:1;color-rendering:auto;image-rendering:auto;shape-rendering:auto;text-rendering:auto;enable-background:accumulate" d="m 12.5,1035.8613 a 0.50005,0.50005 0 0 0 -0.5,0.5 l 0,3.5 a 0.50005,0.50005 0 0 0 0.5,0.5 l 7,0 a 0.50005,0.50005 0 0 0 0.5,-0.5 l 0,-3.5 a 0.50005,0.50005 0 0 0 -0.5,-0.5 l -7,0 z m 0.5,1 6,0 0,2.5 -6,0 0,-2.5 z"/></g><text x="0" y="47.000001" fill="#72ce74" font-size="5px" font-weight="bold" font-family="'Helvetica Neue', Helvetica, Arial-Unicode, Arial, Sans-serif">Created by anbileru adaleru</text><text x="0" y="52.000001" fill="#72ce74" font-size="5px" font-weight="bold" font-family="'Helvetica Neue', Helvetica, Arial-Unicode, Arial, Sans-serif">from the Noun Project</text></svg>