<?xml version="1.0" encoding="utf-8"?>
<!-- Generator: Adobe Illustrator 18.1.1, SVG Export Plug-In . SVG Version: 6.00 Build 0)  -->
<svg version="1.1" id="Layer_1" xmlns="http://www.w3.org/2000/svg" xmlns:xlink="http://www.w3.org/1999/xlink" x="0px" y="0px"
	 viewBox="0 0 220 220" enable-background="new 0 0 220 220" xml:space="preserve">
<g>
	<path fill="#72CE74" d="M23.3,215.7c-4.6,0-8.5-1.5-11.6-4.6c-3.1-3.1-4.6-6.9-4.6-11.6c0-4.6,1.5-8.5,4.6-11.6
		c3.1-3.1,6.9-4.6,11.6-4.6c4,0,7.2,0.9,9.5,2.7v3.7l-2-1.3l-2.1-1.1c-1.9-0.7-3.7-1-5.4-1c-3.9,0-7,1.2-9.5,3.6
		c-2.5,2.5-3.7,5.7-3.7,9.5c0,3.8,1.2,7,3.7,9.5c2.5,2.5,5.6,3.7,9.5,3.7c3.6,0,6.8-1.2,9.5-3.6v3.9C30,214.8,26.8,215.7,23.3,215.7
		z"/>
	<path fill="#72CE74" d="M62,215.2v-18.8c0-6.6-3.1-9.9-9.2-9.9c-2.5,0-4.7,0.8-6.5,2.3c-1.9,1.5-2.8,3.5-2.8,6.1v20.4h-3.1v-56h3.1
		V188c1.9-3.1,5-4.6,9.3-4.6c8.2,0,12.3,4.2,12.3,12.6v19.1H62z"/>
	<path fill="#72CE74" d="M74.8,198.8c0,4.2,1.1,7.6,3.4,10.1c2.4,2.5,5.6,3.8,9.8,3.8c2.1,0,4-0.4,5.8-1.1c2.2-0.9,4.1-2.7,5.8-5.5
		l2.8,1.3c-2,3.7-5,6.3-9.1,7.6c-1.6,0.5-3.3,0.8-5.3,0.8c-4.7,0-8.6-1.5-11.6-4.6c-3.1-3.1-4.6-6.9-4.6-11.6
		c0-4.7,1.5-8.6,4.5-11.6c3.1-3.1,7-4.6,11.7-4.6c4.6,0,8.5,1.4,11.5,4.3c3.1,2.9,4.6,6.6,4.6,11.2H74.8z M96.2,188.9
		c-2.4-1.7-5.1-2.6-8.2-2.6c-6.5,0-10.7,3.2-12.7,9.5h25.4C100.1,193,98.7,190.7,96.2,188.9z"/>
	<path fill="#72CE74" d="M126.1,215.7c-4.6,0-8.5-1.5-11.6-4.6c-3.1-3.1-4.6-6.9-4.6-11.6c0-4.6,1.5-8.5,4.6-11.6
		c3.1-3.1,6.9-4.6,11.6-4.6c4,0,7.2,0.9,9.5,2.7v3.7l-2-1.3l-2.1-1.1c-1.9-0.7-3.7-1-5.4-1c-3.9,0-7,1.2-9.5,3.6
		c-2.5,2.5-3.7,5.7-3.7,9.5c0,3.8,1.2,7,3.7,9.5c2.5,2.5,5.6,3.7,9.5,3.7c3.6,0,6.8-1.2,9.5-3.6v3.9
		C132.8,214.8,129.6,215.7,126.1,215.7z"/>
	<path fill="#72CE74" d="M161,215.1l-16.3-16.3l-1.7,1.7v14.5h-3.1v-56h3.1v37l13.5-13.5h4.4l-14.2,14.1l18.4,18.4H161z"/>
	<path fill="#72CE74" d="M171.2,166.9c0-1.2,0.4-2.3,1.2-3.1c0.8-0.9,1.7-1.3,2.8-1.3s2.1,0.4,2.9,1.3c0.8,0.9,1.2,1.9,1.2,3.1
		c0,1.2-0.4,2.2-1.2,3.1c-0.8,0.9-1.8,1.3-2.9,1.3s-2.1-0.4-2.8-1.3C171.6,169.1,171.2,168.1,171.2,166.9z M178.9,212.4
		c-0.1,1.3-0.4,2.2-1.1,2.9c-0.7,0.6-1.5,1-2.3,1c-0.8,0-1.5-0.3-2.2-0.9c-0.7-0.6-1.1-1.5-1.3-2.7c-0.1-5.2-0.1-10.6-0.1-16.1
		c0-5.5-0.1-10.8-0.1-16.1c0.3-1.1,0.7-2,1.3-2.5c0.6-0.6,1.3-0.8,2.1-0.8c0.7,0,1.4,0.3,2,0.8c0.6,0.5,1.1,1.3,1.4,2.3
		c0.1,5.2,0.1,10.6,0.1,16.1C178.8,201.8,178.8,207.2,178.9,212.4z"/>
	<path fill="#72CE74" d="M186.7,184.4c-0.6-0.7-0.9-1.4-0.9-2.2c0-0.8,0.3-1.5,1-2.3c0.6-0.8,1.6-1.1,2.9-1.1h4.7v-13.2
		c0.3-1.1,0.7-2,1.3-2.5c0.6-0.6,1.3-0.8,2.1-0.8c0.7,0,1.4,0.3,2,0.8c0.6,0.5,1.1,1.3,1.4,2.3v13.5h8c1.1,0.3,1.8,0.7,2.3,1.4
		c0.5,0.6,0.8,1.3,0.8,2c0,0.8-0.3,1.5-0.8,2.1c-0.6,0.6-1.4,1.1-2.5,1.3h-7.8c-0.1,4.3-0.1,8.7,0,13.3c0.1,4.5,0.1,9,0.1,13.3
		c0,1.3-0.4,2.2-1.1,2.9c-0.8,0.6-1.5,1-2.3,1c-0.8,0-1.5-0.3-2.2-0.9c-0.7-0.6-1.1-1.5-1.3-2.7c0-4.3,0-8.8,0-13.4
		c0-4.6,0-9,0-13.4h-4.9C188.2,185.5,187.3,185.1,186.7,184.4z"/>
</g>
<g>
	<linearGradient id="SVGID_1_" gradientUnits="userSpaceOnUse" x1="84.6204" y1="88.5595" x2="181.5823" y2="4.5259">
		<stop  offset="0" style="stop-color:#72CE74"/>
		<stop  offset="1" style="stop-color:#009245;stop-opacity:0.8873"/>
	</linearGradient>
	<path fill="url(#SVGID_1_)" d="M145,55.3l-4.1-13.4L128.5,18L107.6,7.5l-4.9-2l-0.2,0.3l-3.1-0.5L99.2,5H71.3
		C67.1,5,64,8.3,64,12.5v70.7c2-1.9,3.8-3.3,3.8-3.3l16.5,27.6l18.8,20.8l13.7,3.7h27c4.2,0,8.2-3.2,8.2-7.4V59.2L145,55.3z"/>
	<g>
		<g>
			<path fill="#E5E5E5" d="M139.6,84l-25.5-30.7h13.4c2.2-21.1-6.6-41.3-30.8-48.6c31.2-0.1,48.8,23.4,54.8,48.6H165L139.6,84z
				 M139.6,84"/>
		</g>
	</g>
	<g>
		<g>
			<path fill="#D6D6D6" d="M75.5,52L101,83.1H87.6c-2.2,21.4,6.6,41.9,30.8,49.2c-31.2,0.1-48.8-23.8-54.8-49.2H50L75.5,52z
				 M75.5,52"/>
		</g>
	</g>
</g>
</svg>
